<svg width="13" height="12" viewBox="0 0 13 12" fill="none" xmlns="http://www.w3.org/2000/svg">
<path d="M7.99996 4.66668L7.50663 4.58468C7.49472 4.65631 7.49855 4.72967 7.51786 4.79966C7.53717 4.86965 7.5715 4.9346 7.61844 4.98999C7.66539 5.04537 7.72384 5.08987 7.78973 5.12038C7.85561 5.1509 7.92735 5.1667 7.99996 5.16668V4.66668ZM0.666626 4.66668L0.666626 4.16668C0.534018 4.16668 0.406841 4.21936 0.313073 4.31313C0.219304 4.4069 0.166626 4.53407 0.166626 4.66668H0.666626ZM1.99996 11.8333L9.57329 11.8333V10.8333L1.99996 10.8333V11.8333ZM10.3733 4.16668H7.99996V5.16668H10.3733V4.16668ZM8.49329 4.74868L9.03062 1.52535L8.04396 1.36068L7.50663 4.58468L8.49329 4.74868ZM7.87996 0.166682L7.73729 0.166682V1.16668H7.87929L7.87996 0.166682ZM5.65662 1.28002L3.97996 3.79535L4.81196 4.35002L6.48863 1.83468L5.65662 1.28002ZM3.28663 4.16668H0.666626L0.666626 5.16668H3.28663V4.16668ZM0.166626 4.66668L0.166626 10H1.16663L1.16663 4.66668H0.166626ZM11.3713 10.36L12.1713 6.36002L11.1913 6.16335L10.3913 10.1633L11.3713 10.3593V10.36ZM3.97996 3.79535C3.90389 3.90954 3.80081 4.00251 3.67986 4.06729C3.55891 4.13207 3.42383 4.16598 3.28663 4.16602V5.16602C3.89996 5.16602 4.47196 4.86002 4.81196 4.35002L3.97996 3.79535ZM9.03062 1.52535C9.0584 1.35826 9.04947 1.18646 9.00443 1.02318C8.9594 0.859892 8.87936 0.708371 8.76986 0.579143C8.66036 0.449914 8.52404 0.346078 8.37036 0.274851C8.21668 0.203623 8.04934 0.166712 7.87996 0.166682L7.87929 1.16668C7.90346 1.16674 7.92799 1.17206 7.94989 1.18225C7.9718 1.19245 7.99123 1.2073 8.00683 1.22575C8.02243 1.2442 8.03383 1.26583 8.04024 1.28913C8.04665 1.31243 8.04792 1.33684 8.04396 1.36068L9.03062 1.52535ZM10.3733 5.16602C10.9 5.16602 11.2933 5.64735 11.1906 6.16268L12.1713 6.35935C12.2243 6.09341 12.2177 5.81835 12.152 5.55527C12.0862 5.29219 11.9628 5.04699 11.7909 4.83732C11.6189 4.62765 11.4025 4.45875 11.1574 4.34278C10.9123 4.22681 10.6445 4.16667 10.3733 4.16668V5.16668V5.16602ZM9.57329 11.8333C9.9971 11.8334 10.4078 11.686 10.7356 11.4174C11.0635 11.1488 11.2881 10.7749 11.3713 10.3593L10.3913 10.1627C10.3535 10.3517 10.2513 10.5219 10.1022 10.644C9.953 10.7662 9.7661 10.8335 9.57329 10.8333V11.8333ZM7.73729 0.166682C7.32574 0.166712 6.92055 0.267679 6.5577 0.461896C6.19486 0.656112 5.88557 0.936904 5.65729 1.27935L6.48863 1.83468C6.62565 1.62912 6.81133 1.45992 7.02917 1.34339C7.247 1.22685 7.49024 1.16659 7.73729 1.16668V0.166682ZM1.99996 10.8333C1.53996 10.8333 1.16663 10.46 1.16663 10H0.166626C0.166626 10.4862 0.35978 10.9526 0.703597 11.2964C1.04741 11.6402 1.51373 11.8333 1.99996 11.8333V10.8333Z" fill="black"/>
<path d="M3.33325 4.66675L3.33325 11.3334" stroke="black" stroke-width="1.25"/>
</svg>
