<svg width="17" height="16" viewBox="0 0 17 16" fill="none" xmlns="http://www.w3.org/2000/svg">
<g clip-path="url(#clip0_8_10033)">
<path d="M10.3334 17.5C6.16675 17.5 1.16675 13.3333 1.16675 10C1.16675 6.66667 6.16675 2.5 10.3334 2.5C14.5001 2.5 19.5001 6.66667 19.5001 10C19.5001 13.3333 14.5001 17.5 10.3334 17.5ZM10.3334 5.83333C9.22835 5.83333 8.16854 6.27232 7.38714 7.05372C6.60573 7.83512 6.16675 8.89493 6.16675 10C6.16675 11.1051 6.60573 12.1649 7.38714 12.9463C8.16854 13.7277 9.22835 14.1667 10.3334 14.1667C11.4385 14.1667 12.4983 13.7277 13.2797 12.9463C14.0611 12.1649 14.5001 11.1051 14.5001 10C14.5001 8.89493 14.0611 7.83512 13.2797 7.05372C12.4983 6.27232 11.4385 5.83333 10.3334 5.83333Z" stroke="black" stroke-width="1.66667"/>
<path d="M7.00004 2.00467C5.03604 2.026 3.94004 2.15067 3.21204 2.87867C2.33337 3.75733 2.33337 5.172 2.33337 8C2.33337 10.8287 2.33337 12.2427 3.21204 13.1213C4.09071 14 5.50537 14 8.33337 14C11.162 14 12.576 14 13.4547 13.1213C14.162 12.414 14.3 11.3593 14.3267 9.49867M14.3334 2L9.83337 2M14.3334 2V6.5M14.3334 2L8.83337 7.5" stroke="black" stroke-width="1.25" stroke-linecap="round" stroke-linejoin="round"/>
</g>
<defs>
<clipPath id="clip0_8_10033">
<rect width="16" height="16" fill="white" transform="translate(0.333374)"/>
</clipPath>
</defs>
</svg>
