<svg width="17" height="16" viewBox="0 0 17 16" fill="none" xmlns="http://www.w3.org/2000/svg">
<path d="M15.3228 7.14887L12.5041 9.60887L13.3485 13.2714C13.3931 13.4628 13.3804 13.6632 13.3118 13.8475C13.2432 14.0317 13.1218 14.1917 12.9628 14.3073C12.8038 14.423 12.6143 14.4892 12.4179 14.4977C12.2214 14.5062 12.0269 14.4566 11.8585 14.3551L8.66409 12.4176L5.47659 14.3551C5.3082 14.4566 5.11362 14.5062 4.9172 14.4977C4.72077 14.4892 4.53121 14.423 4.37221 14.3073C4.21321 14.1917 4.09183 14.0317 4.02325 13.8475C3.95466 13.6632 3.94191 13.4628 3.98659 13.2714L4.82972 9.61262L2.01034 7.14887C1.86122 7.02026 1.75339 6.85049 1.70038 6.66084C1.64736 6.47119 1.65152 6.27011 1.71232 6.08281C1.77313 5.89552 1.88788 5.73034 2.04219 5.60801C2.1965 5.48567 2.38349 5.41161 2.57972 5.39512L6.29597 5.07324L7.74659 1.61324C7.82234 1.43169 7.95012 1.27661 8.11383 1.16753C8.27754 1.05845 8.46987 1.00024 8.66659 1.00024C8.86331 1.00024 9.05564 1.05845 9.21935 1.16753C9.38306 1.27661 9.51084 1.43169 9.58659 1.61324L11.0416 5.07324L14.7566 5.39512C14.9528 5.41161 15.1398 5.48567 15.2941 5.60801C15.4484 5.73034 15.5632 5.89552 15.624 6.08281C15.6848 6.27011 15.6889 6.47119 15.6359 6.66084C15.5829 6.85049 15.4751 7.02026 15.326 7.14887H15.3228Z" fill="black"/>
</svg>
