<svg width="16" height="16" viewBox="0 0 16 16" fill="none" xmlns="http://www.w3.org/2000/svg">
<path d="M2.18337 10.1974C1.61671 9.46141 1.33337 9.09275 1.33337 8.00008C1.33337 6.90675 1.61671 6.53941 2.18337 5.80275C3.31471 4.33341 5.21204 2.66675 8.00004 2.66675C10.788 2.66675 12.6854 4.33341 13.8167 5.80275C14.3834 6.54008 14.6667 6.90741 14.6667 8.00008C14.6667 9.09341 14.3834 9.46075 13.8167 10.1974C12.6854 11.6667 10.788 13.3334 8.00004 13.3334C5.21204 13.3334 3.31471 11.6667 2.18337 10.1974Z" stroke="black" stroke-width="1.25"/>
<path d="M10 8C10 8.53043 9.78929 9.03914 9.41421 9.41421C9.03914 9.78929 8.53043 10 8 10C7.46957 10 6.96086 9.78929 6.58579 9.41421C6.21071 9.03914 6 8.53043 6 8C6 7.46957 6.21071 6.96086 6.58579 6.58579C6.96086 6.21071 7.46957 6 8 6C8.53043 6 9.03914 6.21071 9.41421 6.58579C9.78929 6.96086 10 7.46957 10 8Z" stroke="black" stroke-width="1.25"/>
</svg>
