<svg width="20" height="20" viewBox="0 0 20 20" fill="none" xmlns="http://www.w3.org/2000/svg">
<path d="M15.1184 16.6409C12.5675 15.4257 10.2506 13.7859 8.23244 11.7675C6.21401 9.74938 4.57432 7.4325 3.35907 4.8815L4.48763 4.34375C5.64151 6.76594 7.19882 8.96625 9.11626 10.8837C11.0337 12.8011 13.234 14.3584 15.6562 15.5123L15.1184 16.6409Z" fill="black"/>
<path d="M14.6008 10.548C13.1366 10.548 11.8341 10.0668 10.8837 9.11615C9.17049 7.40321 8.98099 4.54615 10.3884 1.6604L11.5121 2.20853C10.3454 4.5999 10.4434 6.90821 11.7676 8.2324C13.092 9.55628 15.3997 9.65515 17.7914 8.48784L18.3396 9.61153C17.0547 10.238 15.7757 10.548 14.6008 10.548Z" fill="black"/>
<path d="M8.58581 18.0025L7.36575 17.7304C7.753 15.9936 7.43287 14.5037 6.46456 13.5354C5.49625 12.5671 4.007 12.2482 2.26962 12.6342L1.99744 11.4142C4.1355 10.9375 6.08556 11.3889 7.34837 12.6517C8.61119 13.9145 9.06219 15.8648 8.58581 18.0025Z" fill="black"/>
<path d="M15.3034 3.81274L3.81287 15.3032L4.69666 16.187L16.1871 4.69653L15.3034 3.81274Z" fill="black"/>
<path d="M10 18.75C5.17519 18.75 1.25 14.8248 1.25 10C1.25 5.17519 5.17519 1.25 10 1.25C14.8248 1.25 18.75 5.17519 18.75 10C18.75 14.8248 14.8248 18.75 10 18.75ZM10 2.5C5.86456 2.5 2.5 5.86456 2.5 10C2.5 14.1354 5.86456 17.5 10 17.5C14.1354 17.5 17.5 14.1354 17.5 10C17.5 5.86456 14.1354 2.5 10 2.5Z" fill="black"/>
</svg>
