<svg width="19" height="20" viewBox="0 0 19 20" fill="none" xmlns="http://www.w3.org/2000/svg">
<path d="M14.375 7.53369C14.375 7.69945 14.3092 7.85842 14.1919 7.97563C14.0747 8.09284 13.9158 8.15869 13.75 8.15869C13.5842 8.15869 13.4253 8.09284 13.3081 7.97563C13.1908 7.85842 13.125 7.69945 13.125 7.53369C13.125 7.36793 13.1908 7.20896 13.3081 7.09175C13.4253 6.97454 13.5842 6.90869 13.75 6.90869C13.9158 6.90869 14.0747 6.97454 14.1919 7.09175C14.3092 7.20896 14.375 7.36793 14.375 7.53369ZM12.5 9.40869C12.6658 9.40869 12.8247 9.34284 12.9419 9.22563C13.0592 9.10842 13.125 8.94945 13.125 8.78369C13.125 8.61793 13.0592 8.45896 12.9419 8.34175C12.8247 8.22454 12.6658 8.15869 12.5 8.15869C12.3342 8.15869 12.1753 8.22454 12.0581 8.34175C11.9408 8.45896 11.875 8.61793 11.875 8.78369C11.875 8.94945 11.9408 9.10842 12.0581 9.22563C12.1753 9.34284 12.3342 9.40869 12.5 9.40869ZM15.625 8.78369C15.625 8.94945 15.5592 9.10842 15.4419 9.22563C15.3247 9.34284 15.1658 9.40869 15 9.40869C14.8342 9.40869 14.6753 9.34284 14.5581 9.22563C14.4408 9.10842 14.375 8.94945 14.375 8.78369C14.375 8.61793 14.4408 8.45896 14.5581 8.34175C14.6753 8.22454 14.8342 8.15869 15 8.15869C15.1658 8.15869 15.3247 8.22454 15.4419 8.34175C15.5592 8.45896 15.625 8.61793 15.625 8.78369ZM13.75 10.6587C13.9158 10.6587 14.0747 10.5928 14.1919 10.4756C14.3092 10.3584 14.375 10.1995 14.375 10.0337C14.375 9.86793 14.3092 9.70896 14.1919 9.59175C14.0747 9.47454 13.9158 9.40869 13.75 9.40869C13.5842 9.40869 13.4253 9.47454 13.3081 9.59175C13.1908 9.70896 13.125 9.86793 13.125 10.0337C13.125 10.1995 13.1908 10.3584 13.3081 10.4756C13.4253 10.5928 13.5842 10.6587 13.75 10.6587ZM5.625 6.90869H6.875V8.15869H8.125V9.40869H6.875V10.6587H5.625V9.40869H4.375V8.15869H5.625V6.90869Z" fill="black"/>
<path d="M3.81375 4.07508C3.7924 3.99572 3.78691 3.91291 3.7976 3.83142C3.8083 3.74993 3.83496 3.67135 3.87606 3.60017C3.91716 3.529 3.9719 3.46663 4.03714 3.41664C4.10238 3.36665 4.17683 3.33001 4.25625 3.30883L6.67125 2.66133C6.75427 2.63921 6.84097 2.63444 6.92591 2.64733C7.01086 2.66021 7.09224 2.69047 7.16497 2.73622C7.2377 2.78197 7.30021 2.84222 7.34861 2.91321C7.39701 2.98421 7.43024 3.06442 7.44625 3.14883C8.265 3.05008 9.13375 3.00258 10 3.00258C10.9 3.00258 11.8038 3.05383 12.65 3.16008C12.6646 3.07439 12.6969 2.99268 12.7449 2.92019C12.7929 2.8477 12.8555 2.78601 12.9286 2.73907C13.0018 2.69213 13.084 2.66098 13.1699 2.64759C13.2558 2.6342 13.3435 2.63889 13.4275 2.66133L15.8425 3.30883C15.9346 3.3335 16.0199 3.37894 16.0918 3.44166C16.1637 3.50438 16.2203 3.58272 16.2572 3.67068C16.2941 3.75864 16.3104 3.85388 16.3048 3.94911C16.2992 4.04434 16.2719 4.13703 16.225 4.22008C16.4 4.33258 16.5575 4.45758 16.6912 4.59133C17.2013 5.10133 17.6663 5.90383 18.06 6.80633C18.46 7.72258 18.8088 8.79508 19.0662 9.88883C19.3237 10.9826 19.4912 12.1138 19.5212 13.1463C19.5512 14.1663 19.4475 15.1488 19.1112 15.9088C18.9579 16.25 18.7007 16.5341 18.3763 16.7204C18.0519 16.9067 17.677 16.9858 17.305 16.9463C16.51 16.8626 15.9113 16.4538 15.4137 15.9801C15.1075 15.6901 14.7937 15.3226 14.49 14.9701C14.3325 14.7851 14.1775 14.6051 14.03 14.4413C13.12 13.4363 12.0337 12.5326 10 12.5326C7.96625 12.5326 6.88 13.4363 5.97 14.4413C5.82125 14.6051 5.6675 14.7851 5.51 14.9701C5.20625 15.3226 4.8925 15.6888 4.58625 15.9801C4.08875 16.4551 3.49 16.8626 2.695 16.9463C2.32301 16.9858 1.94806 16.9067 1.62368 16.7204C1.29931 16.5341 1.04209 16.25 0.888749 15.9088C0.551249 15.1488 0.448749 14.1651 0.477499 13.1463C0.507499 12.1138 0.677499 10.9838 0.933749 9.88883C1.19125 8.79508 1.54125 7.72258 1.94 6.80633C2.33375 5.90383 2.79875 5.10133 3.3075 4.59133C3.47091 4.43105 3.65257 4.29051 3.84875 4.17258C3.83436 4.1407 3.82265 4.10892 3.81375 4.07508ZM6.35875 4.59008C5.2625 4.82133 4.5225 5.14383 4.1925 5.47508C3.8475 5.82008 3.45875 6.45383 3.08625 7.30633C2.69108 8.23332 2.3782 9.19327 2.15125 10.1751C1.91149 11.1612 1.76956 12.1686 1.7275 13.1826C1.7 14.1263 1.805 14.8926 2.03125 15.4026C2.07758 15.5019 2.15385 15.5843 2.24934 15.6381C2.34484 15.6919 2.45478 15.7144 2.56375 15.7026C2.9725 15.6601 3.32625 15.4538 3.725 15.0751C3.99 14.8226 4.225 14.5463 4.49375 14.2326C4.66 14.0376 4.83875 13.8288 5.04375 13.6026C6.07625 12.4613 7.4725 11.2838 10 11.2838C12.5275 11.2838 13.9237 12.4613 14.9563 13.6026C15.1613 13.8288 15.34 14.0376 15.5062 14.2326C15.7737 14.5463 16.01 14.8226 16.275 15.0751C16.6725 15.4538 17.0263 15.6601 17.4363 15.7038C17.5454 15.7156 17.6554 15.6928 17.7509 15.6388C17.8464 15.5848 17.9226 15.5022 17.9688 15.4026C18.1938 14.8926 18.3 14.1276 18.2725 13.1826C18.2304 12.1686 18.0885 11.1612 17.8488 10.1751C17.6218 9.19328 17.3089 8.23333 16.9137 7.30633C16.5413 6.45383 16.1512 5.81883 15.8075 5.47508C15.4775 5.14383 14.7375 4.82133 13.6412 4.59008C12.5787 4.36633 11.295 4.25258 10 4.25258C8.705 4.25258 7.42125 4.36633 6.35875 4.59008Z" fill="black"/>
</svg>
