<svg width="20" height="20" viewBox="0 0 20 20" fill="none" xmlns="http://www.w3.org/2000/svg">
<path d="M7.11244 9.37489H4.66288L2.73744 7.12451L1.78775 7.93751L3.55225 9.99989L1.78775 12.0623L2.73744 12.8753L4.66288 10.6249H7.11244C7.45788 10.6249 7.73744 10.3453 7.73744 9.99989C7.73744 9.65445 7.45788 9.37489 7.11244 9.37489Z" fill="black"/>
<path d="M8.86899 11.9586C8.57055 11.7858 8.18786 11.8877 8.01511 12.1874L6.78967 14.3077L3.87817 14.8547L4.10886 16.0827L6.77611 15.5822L7.67942 18.1451L8.85861 17.73L7.87267 14.9324L9.09786 12.8124C9.27061 12.5139 9.16805 12.1313 8.86899 11.9586Z" fill="black"/>
<path d="M13.2103 14.3077L11.9849 12.1874C11.8116 11.8877 11.4289 11.7858 11.131 11.9586C10.8319 12.1313 10.7294 12.514 10.9021 12.8124L12.1273 14.9324L11.1414 17.7301L12.3206 18.1451L13.2239 15.5822L15.8911 16.0827L16.1218 14.8547L13.2103 14.3077Z" fill="black"/>
<path d="M18.2123 7.93751L17.2626 7.12451L15.3371 9.37489H12.8876C12.5421 9.37489 12.2626 9.65445 12.2626 9.99989C12.2626 10.3453 12.5421 10.6249 12.8876 10.6249H15.3371L17.2626 12.8753L18.2123 12.0623L16.4478 9.99989L18.2123 7.93751Z" fill="black"/>
<path d="M16.1218 5.14536L15.8911 3.91736L13.2239 4.41786L12.3206 1.85498L11.1414 2.27004L12.1273 5.06767L10.9021 7.18767C10.7294 7.48611 10.8319 7.86879 11.131 8.04154C11.2292 8.09829 11.3367 8.12517 11.4429 8.12517C11.6589 8.12517 11.8689 8.01348 11.9849 7.81267L13.2103 5.69236L16.1218 5.14536Z" fill="black"/>
<path d="M9.09786 7.18742L7.87267 5.06742L8.85861 2.2698L7.67942 1.85474L6.77611 4.41761L4.10886 3.91711L3.87817 5.14511L6.78967 5.69205L8.01511 7.81236C8.13105 8.01317 8.34105 8.12486 8.55711 8.12486C8.6633 8.12486 8.77074 8.09799 8.86899 8.04124C9.16805 7.86849 9.27061 7.48586 9.09786 7.18742Z" fill="black"/>
<path d="M11.4435 13.125H8.55656C8.33318 13.125 8.12687 13.006 8.01518 12.8125L6.57168 10.3125C6.45999 10.119 6.45999 9.881 6.57168 9.6875L8.01518 7.1875C8.12687 6.994 8.33318 6.875 8.55656 6.875H11.4435C11.6669 6.875 11.8732 6.994 11.9849 7.1875L13.4284 9.6875C13.5401 9.881 13.5401 10.119 13.4284 10.3125L11.9849 12.8125C11.8732 13.006 11.6669 13.125 11.4435 13.125ZM8.91724 11.875H11.0827L12.1655 10L11.0827 8.125H8.91724L7.83449 10L8.91724 11.875Z" fill="black"/>
<path d="M10 18.75C5.17519 18.75 1.25 14.8248 1.25 10C1.25 5.17519 5.17519 1.25 10 1.25C14.8248 1.25 18.75 5.17519 18.75 10C18.75 14.8248 14.8248 18.75 10 18.75ZM10 2.5C5.86425 2.5 2.5 5.86425 2.5 10C2.5 14.1357 5.86425 17.5 10 17.5C14.1357 17.5 17.5 14.1357 17.5 10C17.5 5.86425 14.1357 2.5 10 2.5Z" fill="black"/>
</svg>
