<svg width="24" height="25" viewBox="0 0 24 25" fill="none" xmlns="http://www.w3.org/2000/svg">
<path d="M8.25 22.4868C4.52782 22.4868 1.5 19.4586 1.5 15.7368C1.5 12.015 4.52782 8.98682 8.25 8.98682H21.75C21.991 8.98682 22.2172 9.10254 22.3586 9.29844C22.4992 9.49397 22.5381 9.74522 22.4611 9.97412L20.9611 14.4741C20.8645 14.7641 20.6015 14.9663 20.2969 14.9853L14.986 15.3171C14.9956 15.4581 15 15.5984 15 15.7368C15 19.4586 11.9722 22.4868 8.25 22.4868ZM8.25 10.4868C5.35545 10.4868 3 12.8419 3 15.7368C3 18.6317 5.35545 20.9868 8.25 20.9868C11.1445 20.9868 13.5 18.6317 13.5 15.7368C13.5 15.4208 13.4677 15.0915 13.4047 14.7583C13.3645 14.5466 13.4172 14.3284 13.549 14.1584C13.6816 13.9881 13.8801 13.8834 14.0947 13.8698L19.6984 13.5197L20.7092 10.4868H8.25Z" fill="black"/>
<path d="M11.25 14.9868H5.25V16.4868H11.25V14.9868Z" fill="black"/>
<path d="M8.25 19.4868C6.1824 19.4868 4.5 17.8044 4.5 15.7368C4.5 13.6692 6.1824 11.9868 8.25 11.9868C10.3176 11.9868 12 13.6692 12 15.7368C12 17.8044 10.3176 19.4868 8.25 19.4868ZM8.25 13.4868C7.00927 13.4868 6 14.4961 6 15.7368C6 16.9775 7.00927 17.9868 8.25 17.9868C9.49073 17.9868 10.5 16.9775 10.5 15.7368C10.5 14.4961 9.49073 13.4868 8.25 13.4868Z" fill="black"/>
<path d="M12 7.48682C11.5855 7.48682 11.25 7.15097 11.25 6.73682V3.73682C11.25 3.32267 11.5855 2.98682 12 2.98682C12.4145 2.98682 12.75 3.32267 12.75 3.73682V6.73682C12.75 7.15097 12.4145 7.48682 12 7.48682Z" fill="black"/>
<path d="M9.34859 7.83505C9.15667 7.83505 8.96482 7.76178 8.81834 7.6153L7.75777 6.55473C7.46482 6.26178 7.46482 5.78718 7.75777 5.49415C8.05072 5.20113 8.52532 5.2012 8.81834 5.49415L9.87892 6.55473C10.1719 6.84768 10.1719 7.32228 9.87892 7.6153C9.73244 7.76178 9.54044 7.83505 9.34859 7.83505Z" fill="black"/>
<path d="M14.6514 7.83503C14.4595 7.83503 14.2676 7.76175 14.1211 7.61528C13.8282 7.32233 13.8282 6.84773 14.1211 6.5547L15.1817 5.49413C15.4747 5.20118 15.9493 5.20118 16.2423 5.49413C16.5353 5.78708 16.5352 6.26168 16.2423 6.5547L15.1817 7.61528C15.0352 7.76175 14.8432 7.83503 14.6514 7.83503Z" fill="black"/>
</svg>
