<svg width="20" height="20" viewBox="0 0 20 20" fill="none" xmlns="http://www.w3.org/2000/svg">
<path d="M12.6058 1.45215H7.3442C6.23989 1.45354 5.18122 1.89285 4.40035 2.67372C3.61948 3.45459 3.18017 4.51326 3.17878 5.61757V17.0177C3.17882 17.2978 3.25552 17.5726 3.40058 17.8122C3.54564 18.0518 3.75351 18.2472 4.00168 18.3771C4.24985 18.507 4.52884 18.5665 4.80841 18.5492C5.08799 18.5319 5.35751 18.4383 5.58772 18.2787L9.84871 15.3261C9.8855 15.3009 9.92908 15.2874 9.97369 15.2874C10.0183 15.2874 10.0618 15.3009 10.0986 15.3261L14.3632 18.2787C14.5934 18.438 14.8628 18.5313 15.1422 18.5486C15.4217 18.5658 15.7005 18.5062 15.9485 18.3763C16.1965 18.2464 16.4043 18.0513 16.5493 17.8118C16.6943 17.5723 16.7711 17.2977 16.7712 17.0177V5.61757C16.7698 4.51326 16.3305 3.45459 15.5496 2.67372C14.7688 1.89285 13.7101 1.45354 12.6058 1.45215ZM15.4558 17.0177C15.4568 17.058 15.4463 17.0977 15.4255 17.1322C15.4047 17.1667 15.3744 17.1945 15.3383 17.2124C15.3032 17.2323 15.263 17.2415 15.2227 17.2391C15.1824 17.2366 15.1436 17.2224 15.1112 17.1984L10.8467 14.2457C10.5897 14.0686 10.2849 13.9737 9.9728 13.9737C9.66069 13.9737 9.35594 14.0686 9.09895 14.2457L4.83793 17.1974C4.80538 17.2199 4.76736 17.2332 4.72789 17.2358C4.68841 17.2385 4.64896 17.2303 4.61372 17.2123C4.57848 17.1943 4.54875 17.1672 4.52771 17.1337C4.50666 17.1002 4.49508 17.0616 4.49418 17.0221V5.62196C4.49511 4.86637 4.79567 4.14199 5.32995 3.60771C5.86423 3.07342 6.58861 2.77286 7.3442 2.77193H12.6058C13.3614 2.77286 14.0858 3.07342 14.62 3.60771C15.1543 4.14199 15.4549 4.86637 15.4558 5.62196V17.0221V17.0177Z" fill="#505854"/>
</svg>
