<svg width="20" height="20" viewBox="0 0 20 20" fill="none" xmlns="http://www.w3.org/2000/svg">
<path d="M18.4867 8.23878C18.1536 6.57564 17.3359 5.04828 16.1364 3.84899C14.937 2.6497 13.4094 1.83205 11.7462 1.49919C11.4591 1.44172 11.1629 1.44868 10.8788 1.51953C10.5947 1.59038 10.3299 1.72343 10.1034 1.90898C9.87688 2.09454 9.69437 2.32802 9.56901 2.59262C9.44365 2.85722 9.37855 3.14629 9.37841 3.43908V8.19585C9.3791 8.83525 9.63341 9.44821 10.0855 9.90034C10.5377 10.3525 11.1507 10.6068 11.7901 10.6075H16.5468C16.8395 10.6072 17.1286 10.542 17.3931 10.4165C17.6576 10.2911 17.8911 10.1087 18.0766 9.88225C18.2621 9.6558 18.3951 9.39099 18.466 9.10697C18.5369 8.82295 18.544 8.52671 18.4867 8.23963V8.23878ZM17.059 9.04906C16.9972 9.12528 16.9191 9.18672 16.8305 9.2289C16.7419 9.27109 16.6449 9.29301 16.5468 9.29292H11.7901C11.4995 9.29246 11.221 9.17682 11.0155 8.97134C10.81 8.76586 10.6943 8.4873 10.6939 8.19671V3.43994C10.6943 3.26425 10.7644 3.09593 10.8886 2.97169C11.0128 2.84746 11.1812 2.77743 11.3569 2.77696C11.4005 2.77691 11.444 2.78133 11.4867 2.79013C12.8957 3.0719 14.1897 3.76439 15.2059 4.78034C16.222 5.7963 16.9147 7.09029 17.1967 8.49924C17.2157 8.59495 17.2132 8.69374 17.1894 8.78838C17.1656 8.88302 17.121 8.97117 17.059 9.04649V9.04906ZM17.2879 12.8341C16.8771 14.1711 16.1275 15.3792 15.112 16.3409C14.0964 17.3027 12.8494 17.9853 11.492 18.3228C10.1347 18.6603 8.71313 18.641 7.36545 18.2668C6.01776 17.8926 4.78976 17.1762 3.80071 16.1872C2.81166 15.1982 2.09516 13.9703 1.72084 12.6227C1.34652 11.275 1.32708 9.85351 1.66443 8.49613C2.00177 7.13875 2.68442 5.89168 3.64607 4.87605C4.60773 3.86042 5.81572 3.11068 7.15268 2.69978C7.23531 2.67456 7.32211 2.66587 7.40811 2.67419C7.4941 2.68251 7.57758 2.70768 7.65385 2.74827C7.73011 2.78887 7.79767 2.84409 7.85259 2.91078C7.90751 2.97747 7.94876 3.05435 7.97399 3.13698C7.99921 3.21961 8.00789 3.30642 7.99957 3.39241C7.99125 3.4784 7.96609 3.56194 7.92549 3.6382C7.8849 3.71446 7.82968 3.78197 7.76299 3.83689C7.6963 3.89181 7.61942 3.93307 7.53678 3.95829C6.4169 4.3027 5.40511 4.93084 4.59964 5.78171C3.79417 6.63259 3.22239 7.67722 2.93985 8.81429C2.65731 9.95137 2.67363 11.1422 2.98716 12.2711C3.3007 13.4 3.90079 14.4287 4.72923 15.2572C5.55767 16.0858 6.5863 16.686 7.71519 16.9996C8.84408 17.3133 10.0349 17.3297 11.172 17.0473C12.3091 16.7648 13.3539 16.1932 14.2048 15.3878C15.0558 14.5825 15.684 13.5707 16.0285 12.4509C16.084 12.2896 16.1999 12.1562 16.3519 12.0786C16.5038 12.0011 16.6798 11.9855 16.843 12.0352C17.0062 12.0848 17.1437 12.1959 17.2267 12.3449C17.3097 12.4939 17.3316 12.6693 17.2879 12.8341Z" fill="#505854"/>
</svg>
