<svg width="20" height="20" viewBox="0 0 20 20" fill="none" xmlns="http://www.w3.org/2000/svg">
<path d="M17.6671 8.93768H18.3072V7.43445C18.3059 6.35273 17.8783 5.31566 17.1183 4.55077C16.3583 3.78588 15.3279 3.35561 14.2532 3.35425H5.71834C4.64355 3.35561 3.61319 3.78588 2.8532 4.55077C2.09321 5.31566 1.66565 6.35273 1.66429 7.43445V8.93768H2.3044C2.58735 8.93768 2.85873 9.05078 3.05881 9.25215C3.25888 9.45351 3.37126 9.72664 3.37126 10.0114C3.37126 10.2962 3.25888 10.5693 3.05881 10.7707C2.85873 10.9721 2.58735 11.0852 2.3044 11.0852H1.66429V12.5884C1.66565 13.6701 2.09321 14.7072 2.8532 15.4721C3.61319 16.2369 4.64355 16.6672 5.71834 16.6686H14.2532C15.3279 16.6672 16.3583 16.2369 17.1183 15.4721C17.8783 14.7072 18.3059 13.6701 18.3072 12.5884V11.0852H17.6671C17.3842 11.0852 17.1128 10.9721 16.9127 10.7707C16.7126 10.5693 16.6002 10.2962 16.6002 10.0114C16.6002 9.72664 16.7126 9.45351 16.9127 9.25215C17.1128 9.05078 17.3842 8.93768 17.6671 8.93768ZM17.027 12.2878V12.5884C17.0261 13.3285 16.7336 14.038 16.2136 14.5614C15.6936 15.0847 14.9886 15.3792 14.2532 15.3801H13.1863V13.4474C13.1863 13.2765 13.1189 13.1127 12.9988 12.9919C12.8788 12.8711 12.716 12.8031 12.5462 12.8031C12.3764 12.8031 12.2136 12.8711 12.0936 12.9919C11.9735 13.1127 11.9061 13.2765 11.9061 13.4474V15.3801H5.71834C4.98295 15.3792 4.27794 15.0847 3.75794 14.5614C3.23794 14.038 2.94542 13.3285 2.94452 12.5884V12.2843C3.4362 12.1442 3.86901 11.8464 4.17723 11.4362C4.48545 11.026 4.65221 10.5257 4.65221 10.0114C4.65221 9.49711 4.48545 8.99684 4.17723 8.58662C3.86901 8.17639 3.4362 7.87863 2.94452 7.73853V7.43445C2.94542 6.69432 3.23794 5.98481 3.75794 5.46146C4.27794 4.93811 4.98295 4.64364 5.71834 4.64273H11.9061V6.57546C11.9061 6.74632 11.9735 6.91014 12.0936 7.03096C12.2136 7.15178 12.3764 7.2197 12.5462 7.2197C12.716 7.2197 12.8788 7.15178 12.9988 7.03096C13.1189 6.91014 13.1863 6.74632 13.1863 6.57546V4.64273H14.2532C14.9886 4.64364 15.6936 4.93811 16.2136 5.46146C16.7336 5.98481 17.0261 6.69432 17.027 7.43445V7.73853C16.5353 7.87863 16.1025 8.17639 15.7943 8.58662C15.4861 8.99684 15.3193 9.49711 15.3193 10.0114C15.3193 10.5257 15.4861 11.026 15.7943 11.4362C16.1025 11.8464 16.5353 12.1442 17.027 12.2843V12.2878ZM13.1863 9.15589V10.8739C13.1863 11.0447 13.1189 11.2085 12.9988 11.3294C12.8788 11.4502 12.716 11.5181 12.5462 11.5181C12.3764 11.5181 12.2136 11.4502 12.0936 11.3294C11.9735 11.2085 11.9061 11.0447 11.9061 10.8739V9.15589C11.9061 8.98502 11.9735 8.8211 12.0936 8.70028C12.2136 8.57946 12.3764 8.51164 12.5462 8.51164C12.716 8.51164 12.8788 8.57946 12.9988 8.70028C13.1189 8.8211 13.1863 8.98502 13.1863 9.15589Z" fill="#505854"/>
</svg>
