<svg width="18" height="18" viewBox="0 0 18 18" fill="none" xmlns="http://www.w3.org/2000/svg">
<path d="M16.0136 4.87982L11.618 1.34522C10.8739 0.753041 9.95097 0.430664 9 0.430664C8.04903 0.430664 7.12615 0.753041 6.38199 1.34522L1.98639 4.87982C1.49871 5.26989 1.10535 5.76501 0.835621 6.32829C0.565895 6.89157 0.426761 7.5085 0.428591 8.13304V13.4015C0.430454 14.5082 0.871147 15.5689 1.65399 16.351C2.43683 17.1332 3.49789 17.5728 4.60441 17.5735H7.02198V13.4015C7.02198 12.8768 7.23038 12.3736 7.60133 12.0026C7.97228 11.6316 8.4754 11.4232 9 11.4232C9.5246 11.4232 10.0277 11.6316 10.3987 12.0026C10.7696 12.3736 10.978 12.8768 10.978 13.4015V17.5735H13.3956C14.5021 17.5728 15.5632 17.1332 16.346 16.351C17.1289 15.5689 17.5696 14.5082 17.5714 13.4015V8.13304C17.5732 7.5085 17.4341 6.89157 17.1644 6.32829C16.8947 5.76501 16.5013 5.26989 16.0136 4.87982ZM16.2527 13.398C16.2513 14.155 15.9497 14.8805 15.4141 15.4154C14.8784 15.9503 14.1525 16.2509 13.3956 16.2511H12.2967V13.398C12.2967 12.5235 11.9494 11.6849 11.3311 11.0665C10.7129 10.4482 9.87434 10.1008 9 10.1008C8.12566 10.1008 7.28713 10.4482 6.66888 11.0665C6.05063 11.6849 5.70331 12.5235 5.70331 13.398V16.2511H4.60441C3.84748 16.2509 3.12156 15.9503 2.58592 15.4154C2.05028 14.8805 1.74867 14.155 1.74727 13.398V8.1295C1.74632 7.70293 1.84154 7.28165 2.02586 6.89698C2.21018 6.5123 2.47885 6.17415 2.81188 5.90766L7.20748 2.37307C7.71693 1.96785 8.34864 1.74723 8.99956 1.74723C9.65048 1.74723 10.2822 1.96785 10.7916 2.37307L15.1872 5.90766C15.5203 6.17415 15.7889 6.5123 15.9733 6.89698C16.1576 7.28165 16.2528 7.70293 16.2518 8.1295V13.398H16.2527Z" fill="#505854"/>
</svg>
