<svg width="20" height="20" viewBox="0 0 20 20" fill="none" xmlns="http://www.w3.org/2000/svg">
<path d="M17.2197 5.00309C14.4935 4.09815 11.1719 2.37864 10.4587 1.65785C10.3357 1.53365 10.1685 1.46303 9.99346 1.46143C9.81973 1.46636 9.65357 1.53356 9.52557 1.65078C7.54534 3.27396 5.23796 4.45316 2.76013 5.10831C2.62186 5.14728 2.50016 5.23027 2.41349 5.34455C2.32682 5.45883 2.27995 5.59818 2.28 5.74146C2.28 12.9591 3.40477 16.7156 9.7947 18.536C9.91307 18.5699 10.0386 18.5699 10.157 18.536C16.5856 16.7042 17.67 13.0739 17.67 5.62746C17.6703 5.48941 17.6269 5.35483 17.5461 5.24275C17.4652 5.13068 17.351 5.04677 17.2197 5.00309ZM9.97586 17.2189C4.69489 15.6607 3.64395 12.9223 3.60086 6.23342C5.9125 5.54411 8.08066 4.44499 10.0014 2.9889C11.9856 4.27364 14.117 5.31701 16.3499 6.09662C16.3077 12.8889 15.263 15.6581 9.97586 17.2189Z" fill="#505854"/>
</svg>
