<svg width="20" height="21" viewBox="0 0 20 21" fill="none" xmlns="http://www.w3.org/2000/svg">
<path d="M18.4912 7.85185C18.3853 7.50298 18.1879 7.19283 17.9218 6.95727C17.6556 6.72172 17.3316 6.57046 16.9873 6.52085L13.3109 5.9646L11.6689 2.50907C11.5131 2.18496 11.2751 1.91263 10.9813 1.72244C10.6876 1.53225 10.3496 1.43164 10.0048 1.43164C9.6601 1.43164 9.3221 1.53225 9.02836 1.72244C8.73462 1.91263 8.49663 2.18496 8.34081 2.50907L6.69876 5.9646L3.02241 6.52085C2.67813 6.57028 2.35417 6.72142 2.08801 6.95682C1.82185 7.19222 1.62439 7.50219 1.51845 7.85094C1.41222 8.19486 1.40062 8.56342 1.48498 8.914C1.56935 9.26458 1.74623 9.5829 1.99514 9.83188L4.64951 12.5199L4.02329 16.3112C3.96375 16.6658 4.00013 17.031 4.12829 17.3649C4.25646 17.6988 4.47123 17.988 4.74802 18.1993C5.0285 18.4175 5.36155 18.5481 5.70915 18.5763C6.05675 18.6045 6.40485 18.5292 6.71371 18.3587L10.0048 16.5613L13.2951 18.3578C13.6042 18.528 13.9524 18.6033 14.3001 18.5751C14.6477 18.5469 14.9809 18.4164 15.2617 18.1984C15.5385 17.9871 15.7532 17.6979 15.8814 17.364C16.0096 17.0301 16.0459 16.6648 15.9864 16.3101L15.3602 12.519L18.0146 9.83086C18.2632 9.58211 18.44 9.26423 18.5243 8.914C18.6087 8.56377 18.5972 8.19549 18.4912 7.85185ZM17.1007 8.82982L14.1931 11.7729C14.1152 11.8517 14.0569 11.9494 14.0233 12.0576C13.9897 12.1657 13.9819 12.2809 14.0005 12.393L14.6865 16.5493C14.7038 16.6487 14.6938 16.7513 14.6574 16.8448C14.6211 16.9383 14.5601 17.0187 14.4816 17.0767C14.3988 17.1409 14.3005 17.1792 14.1981 17.1874C14.0956 17.1956 13.993 17.1734 13.902 17.1231L10.3083 15.1607C10.2145 15.1095 10.1105 15.0829 10.0048 15.0829C9.89924 15.0829 9.79518 15.1095 9.70142 15.1607L6.10773 17.1231C6.01684 17.1739 5.91415 17.1965 5.81157 17.1883C5.70899 17.1801 5.61072 17.1414 5.52814 17.0767C5.44956 17.0186 5.38847 16.9379 5.35214 16.8442C5.31582 16.7506 5.30578 16.6479 5.32321 16.5484L6.00923 12.393C6.02772 12.2809 6.01983 12.1657 5.98625 12.0576C5.95267 11.9495 5.89442 11.8517 5.81662 11.7729L2.90895 8.82982C2.8374 8.76112 2.78651 8.67181 2.76259 8.57296C2.73868 8.47412 2.74278 8.37009 2.77438 8.27368C2.80431 8.17275 2.86137 8.08314 2.93864 8.01569C3.01591 7.94824 3.11007 7.90581 3.20973 7.8936L7.22736 7.28734C7.33278 7.27127 7.43293 7.22867 7.5193 7.16298C7.60568 7.09729 7.67571 7.01047 7.7234 6.91009L9.52024 3.12914C9.56651 3.03612 9.63604 2.95821 9.7213 2.90385C9.80657 2.8495 9.90431 2.8208 10.004 2.8208C10.1036 2.8208 10.2014 2.8495 10.2866 2.90385C10.3719 2.95821 10.4414 3.03612 10.4877 3.12914L12.2846 6.91009C12.3322 7.01047 12.4022 7.09729 12.4886 7.16298C12.575 7.22867 12.6752 7.27127 12.7806 7.28734L16.7982 7.8927C16.8979 7.9049 16.992 7.94734 17.0693 8.01479C17.1466 8.08224 17.2036 8.17185 17.2335 8.27277C17.2652 8.36918 17.2695 8.47323 17.2459 8.57217C17.2223 8.67111 17.1719 8.76062 17.1007 8.82982Z" fill="#505854"/>
</svg>
