<svg width="20" height="20" viewBox="0 0 20 20" fill="none" xmlns="http://www.w3.org/2000/svg">
<path d="M9.975 10.673C10.7988 10.673 11.6042 10.4279 12.2892 9.96879C12.9742 9.50967 13.508 8.85713 13.8233 8.09365C14.1386 7.33016 14.2211 6.49008 14.0603 5.67957C13.8996 4.86906 13.5029 4.12452 12.9204 3.54017C12.3378 2.95583 11.5956 2.55792 10.7876 2.3967C9.97964 2.23548 9.14211 2.31819 8.38099 2.63444C7.61987 2.95068 6.96934 3.48626 6.51165 4.17338C6.05395 4.8605 5.80964 5.66829 5.80964 6.49468C5.81104 7.6024 6.25034 8.6644 7.0312 9.44768C7.81205 10.231 8.87071 10.6716 9.975 10.673ZM9.975 3.63584C10.5387 3.63584 11.0897 3.80352 11.5584 4.11765C12.027 4.43178 12.3923 4.87822 12.6081 5.4006C12.8238 5.92299 12.8802 6.49784 12.7702 7.0524C12.6603 7.60696 12.3888 8.11636 11.9902 8.51618C11.5917 8.91599 11.0838 9.18823 10.531 9.29853C9.97815 9.40884 9.40513 9.35224 8.88437 9.13586C8.3636 8.91948 7.91849 8.55315 7.60533 8.08301C7.29217 7.61288 7.12502 7.0601 7.12502 6.49468C7.12595 5.73675 7.4265 5.01019 7.96078 4.47425C8.49505 3.93832 9.21942 3.63678 9.975 3.63584ZM15.8942 14.7633V15.5251C15.895 16.2498 15.629 16.9494 15.1471 17.4893C15.0305 17.6186 14.8676 17.6963 14.6941 17.7055C14.5206 17.7147 14.3505 17.6546 14.221 17.5384C14.0914 17.4222 14.013 17.2593 14.0029 17.0853C13.9927 16.9113 14.0516 16.7403 14.1667 16.6097C14.4321 16.3112 14.5786 15.925 14.578 15.5251V14.7633C14.583 14.2359 14.4119 13.7219 14.092 13.3033C13.7721 12.8847 13.3218 12.5855 12.8127 12.4534C12.6468 12.4104 12.4708 12.4327 12.3207 12.5158C11.6033 12.9147 10.7966 13.1241 9.97634 13.1241C9.15608 13.1241 8.34928 12.9147 7.63188 12.5158C7.48107 12.4306 7.30344 12.4067 7.13556 12.449C6.62635 12.5813 6.17587 12.8806 5.85583 13.2993C5.5358 13.7181 5.36456 14.2322 5.36942 14.7598V15.5215C5.36882 15.9215 5.51525 16.3077 5.78069 16.6062C5.89578 16.7367 5.95469 16.9077 5.94452 17.0817C5.93435 17.2557 5.85593 17.4187 5.72642 17.5349C5.5969 17.6511 5.4268 17.7111 5.25328 17.7019C5.07975 17.6928 4.91691 17.615 4.80031 17.4858C4.31855 16.9457 4.05251 16.2462 4.05319 15.5215V14.7598C4.04822 13.9383 4.3171 13.1387 4.81712 12.4881C5.31714 11.8375 6.01958 11.3732 6.81282 11.1691C7.30754 11.0442 7.83119 11.1148 8.27555 11.3661C8.79589 11.6543 9.38059 11.8056 9.975 11.8056C10.5694 11.8056 11.1541 11.6543 11.6745 11.3661C12.1175 11.1163 12.6394 11.0473 13.1319 11.1735C13.9257 11.3767 14.6289 11.8405 15.1295 12.4911C15.6301 13.1417 15.8993 13.9415 15.8942 14.7633ZM14.6165 2.90664C14.6747 2.74172 14.7958 2.60674 14.9532 2.53135C15.1105 2.45597 15.2913 2.44632 15.4557 2.50462C15.9942 2.69552 16.4737 3.02376 16.8473 3.45706C17.2208 3.89036 17.4754 4.41383 17.586 4.97582C17.6966 5.5378 17.6594 6.119 17.4781 6.66219C17.2968 7.20538 16.9776 7.69183 16.5519 8.07367C16.4876 8.13202 16.4125 8.17706 16.3308 8.20618C16.2491 8.23529 16.1625 8.24792 16.0759 8.24333C15.9893 8.23875 15.9045 8.21702 15.8263 8.17944C15.7481 8.14186 15.6782 8.08909 15.6204 8.02428C15.5626 7.95946 15.5181 7.8839 15.4896 7.80179C15.461 7.71968 15.4489 7.63272 15.454 7.54591C15.4591 7.4591 15.4812 7.37413 15.5192 7.29593C15.5571 7.21773 15.61 7.14779 15.675 7.0902C15.9304 6.861 16.122 6.569 16.2308 6.24298C16.3397 5.91697 16.362 5.56824 16.2956 5.23095C16.2292 4.89365 16.0765 4.5794 15.8523 4.31931C15.6282 4.05922 15.3404 3.86216 15.0173 3.74752C14.8531 3.68917 14.7187 3.5679 14.6435 3.41024C14.5684 3.25258 14.5587 3.07147 14.6165 2.90664ZM18.5249 12.5053V13.1404C18.5249 13.3154 18.4557 13.4831 18.3323 13.6069C18.209 13.7306 18.0417 13.8001 17.8673 13.8001C17.6928 13.8001 17.5255 13.7306 17.4022 13.6069C17.2789 13.4831 17.2096 13.3154 17.2096 13.1404V12.5053C17.2136 12.0903 17.0792 11.6858 16.8276 11.3563C16.5761 11.0268 16.2219 10.7913 15.8214 10.687C15.6522 10.6445 15.5068 10.5362 15.4172 10.3861C15.3276 10.2359 15.3011 10.0563 15.3435 9.88654C15.3859 9.71681 15.4938 9.57098 15.6435 9.48108C15.7931 9.39117 15.9723 9.36463 16.1415 9.4072C16.8264 9.58271 17.4332 9.98302 17.8651 10.5444C18.297 11.1059 18.5293 11.7961 18.5249 12.5053ZM3.39812 8.46421C2.97244 8.08236 2.65324 7.59591 2.47191 7.05272C2.29058 6.50953 2.25339 5.92834 2.36401 5.36635C2.47463 4.80436 2.7292 4.28089 3.10273 3.84759C3.47626 3.4143 3.95585 3.08605 4.49427 2.89515C4.65788 2.84012 4.8365 2.85182 4.9916 2.92769C5.14671 3.00356 5.26586 3.13752 5.32339 3.30072C5.38092 3.46391 5.37223 3.64332 5.29914 3.80013C5.22606 3.95694 5.09445 4.07864 4.93273 4.13902C4.60961 4.25366 4.32181 4.45072 4.09767 4.71081C3.87352 4.9709 3.72076 5.28504 3.65439 5.62234C3.58802 5.95964 3.61033 6.30847 3.71915 6.63448C3.82798 6.9605 4.01957 7.2524 4.27504 7.48159C4.40388 7.59855 4.48136 7.76195 4.49052 7.93601C4.49968 8.11008 4.43981 8.28071 4.32396 8.41063C4.20811 8.54054 4.0457 8.61915 3.87223 8.62935C3.69876 8.63956 3.52831 8.58052 3.39812 8.46507V8.46421ZM4.1286 11.0776C3.72814 11.1818 3.37393 11.4175 3.12237 11.747C2.87082 12.0765 2.73637 12.4808 2.74044 12.8958V13.5318C2.74044 13.7068 2.67115 13.8745 2.54781 13.9983C2.42447 14.122 2.25718 14.1915 2.08275 14.1915C1.90832 14.1915 1.74103 14.122 1.61769 13.9983C1.49435 13.8745 1.42506 13.7068 1.42506 13.5318V12.8967C1.42083 12.1876 1.65315 11.4974 2.08505 10.9361C2.51695 10.3747 3.12363 9.97425 3.80854 9.79859C3.89336 9.7741 3.98221 9.76697 4.06983 9.77766C4.15746 9.78834 4.24205 9.8166 4.31855 9.86077C4.39506 9.90494 4.46192 9.96419 4.51514 10.0348C4.56837 10.1055 4.60691 10.186 4.6284 10.2719C4.64989 10.3578 4.65394 10.4472 4.64028 10.5347C4.62662 10.6222 4.5955 10.7059 4.54886 10.7811C4.50223 10.8563 4.44102 10.9213 4.36881 10.9722C4.29661 11.0232 4.21491 11.059 4.1286 11.0776Z" fill="#505854"/>
</svg>
